<mxfile host="app.diagrams.net" modified="2022-02-14T09:19:09.623Z" agent="5.0 (Windows NT 10.0; Win64; x64) AppleWebKit/537.36 (KHTML, like Gecko) Chrome/98.0.4758.82 Safari/537.36" etag="keu6moYpf9J0Y1_4TNkD" version="16.2.4" type="github">
  <diagram id="7HqS3swt_487gTaHM_jo" name="Page-1">
    <mxGraphModel dx="1248" dy="626" grid="1" gridSize="10" guides="1" tooltips="1" connect="1" arrows="1" fold="1" page="1" pageScale="1" pageWidth="827" pageHeight="1169" math="0" shadow="0">
      <root>
        <mxCell id="0" />
        <mxCell id="1" parent="0" />
        <mxCell id="KnuuBMWMvG8lBeq6jmI4-1" value="&lt;font style=&quot;font-size: 18px&quot;&gt;PC客户端&lt;/font&gt;" style="rounded=0;whiteSpace=wrap;html=1;fillColor=#dae8fc;strokeColor=#6c8ebf;" parent="1" vertex="1">
          <mxGeometry x="20" y="310" width="120" height="60" as="geometry" />
        </mxCell>
        <mxCell id="KnuuBMWMvG8lBeq6jmI4-2" value="" style="rounded=0;whiteSpace=wrap;html=1;" parent="1" vertex="1">
          <mxGeometry x="300" y="280" width="310" height="210" as="geometry" />
        </mxCell>
        <mxCell id="KnuuBMWMvG8lBeq6jmI4-3" value="&lt;font style=&quot;font-size: 18px&quot;&gt;NAS服务端&lt;/font&gt;" style="text;html=1;align=center;verticalAlign=middle;resizable=0;points=[];autosize=1;strokeColor=none;fillColor=none;" parent="1" vertex="1">
          <mxGeometry x="350" y="255" width="110" height="20" as="geometry" />
        </mxCell>
        <mxCell id="KnuuBMWMvG8lBeq6jmI4-4" value="任务管理器" style="rounded=0;whiteSpace=wrap;html=1;fontSize=18;fillColor=#dae8fc;strokeColor=#6c8ebf;" parent="1" vertex="1">
          <mxGeometry x="330" y="310" width="250" height="50" as="geometry" />
        </mxCell>
        <mxCell id="KnuuBMWMvG8lBeq6jmI4-5" value="插件管理器" style="rounded=0;whiteSpace=wrap;html=1;fontSize=18;fillColor=#dae8fc;strokeColor=#6c8ebf;" parent="1" vertex="1">
          <mxGeometry x="330" y="400" width="250" height="50" as="geometry" />
        </mxCell>
        <mxCell id="KnuuBMWMvG8lBeq6jmI4-6" value="" style="ellipse;shape=cloud;whiteSpace=wrap;html=1;fontSize=18;" parent="1" vertex="1">
          <mxGeometry x="250" y="610" width="440" height="250" as="geometry" />
        </mxCell>
        <mxCell id="KnuuBMWMvG8lBeq6jmI4-7" value="&lt;font style=&quot;font-size: 18px&quot;&gt;云端&lt;/font&gt;" style="text;html=1;align=center;verticalAlign=middle;resizable=0;points=[];autosize=1;strokeColor=none;fillColor=none;" parent="1" vertex="1">
          <mxGeometry x="310" y="650" width="50" height="20" as="geometry" />
        </mxCell>
        <mxCell id="KnuuBMWMvG8lBeq6jmI4-8" value="任务管理器" style="rounded=0;whiteSpace=wrap;html=1;fontSize=18;fillColor=#dae8fc;strokeColor=#6c8ebf;" parent="1" vertex="1">
          <mxGeometry x="330" y="680" width="250" height="50" as="geometry" />
        </mxCell>
        <mxCell id="KnuuBMWMvG8lBeq6jmI4-9" value="&lt;font style=&quot;font-size: 18px&quot;&gt;H5客户端&lt;/font&gt;" style="rounded=0;whiteSpace=wrap;html=1;" parent="1" vertex="1">
          <mxGeometry x="20" y="705" width="120" height="60" as="geometry" />
        </mxCell>
        <mxCell id="KnuuBMWMvG8lBeq6jmI4-10" value="应用库" style="rounded=0;whiteSpace=wrap;html=1;fontSize=18;fillColor=#dae8fc;strokeColor=#6c8ebf;" parent="1" vertex="1">
          <mxGeometry x="330" y="750" width="250" height="50" as="geometry" />
        </mxCell>
        <mxCell id="KnuuBMWMvG8lBeq6jmI4-15" value="场景3:PC客户端&lt;br&gt;执行插件命令&lt;br&gt;(以安装为例)" style="shape=callout;whiteSpace=wrap;html=1;perimeter=calloutPerimeter;fontSize=18;" parent="1" vertex="1">
          <mxGeometry x="10" y="150" width="240" height="110" as="geometry" />
        </mxCell>
        <mxCell id="KnuuBMWMvG8lBeq6jmI4-16" value="" style="endArrow=classic;html=1;rounded=0;fontSize=18;exitX=1;exitY=0.25;exitDx=0;exitDy=0;entryX=0;entryY=0.25;entryDx=0;entryDy=0;" parent="1" edge="1" target="KnuuBMWMvG8lBeq6jmI4-4" source="KnuuBMWMvG8lBeq6jmI4-1">
          <mxGeometry width="50" height="50" relative="1" as="geometry">
            <mxPoint x="140" y="380" as="sourcePoint" />
            <mxPoint x="330" y="407.5" as="targetPoint" />
          </mxGeometry>
        </mxCell>
        <mxCell id="KnuuBMWMvG8lBeq6jmI4-17" value="1.POST drive/v1/task&lt;br&gt;action=install&lt;br&gt;type=user#app" style="text;html=1;align=center;verticalAlign=middle;resizable=0;points=[];autosize=1;strokeColor=none;fillColor=none;fontSize=18;" parent="1" vertex="1">
          <mxGeometry x="130" y="250" width="190" height="70" as="geometry" />
        </mxCell>
        <mxCell id="KnuuBMWMvG8lBeq6jmI4-21" value="用户设备存储" style="text;html=1;align=center;verticalAlign=middle;resizable=0;points=[];autosize=1;strokeColor=none;fillColor=none;fontSize=18;" parent="1" vertex="1">
          <mxGeometry x="780" y="245" width="120" height="30" as="geometry" />
        </mxCell>
        <mxCell id="KnuuBMWMvG8lBeq6jmI4-22" value="" style="shape=cylinder3;whiteSpace=wrap;html=1;boundedLbl=1;backgroundOutline=1;size=15;fontSize=18;fillColor=#dae8fc;strokeColor=#6c8ebf;" parent="1" vertex="1">
          <mxGeometry x="800" y="290" width="100" height="190" as="geometry" />
        </mxCell>
        <mxCell id="KnuuBMWMvG8lBeq6jmI4-23" value="" style="endArrow=classic;html=1;rounded=0;fontSize=18;exitX=1;exitY=0.75;exitDx=0;exitDy=0;entryX=1;entryY=0.75;entryDx=0;entryDy=0;" parent="1" source="KnuuBMWMvG8lBeq6jmI4-5" target="KnuuBMWMvG8lBeq6jmI4-10" edge="1">
          <mxGeometry width="50" height="50" relative="1" as="geometry">
            <mxPoint x="660" y="530" as="sourcePoint" />
            <mxPoint x="710" y="480" as="targetPoint" />
            <Array as="points">
              <mxPoint x="640" y="438" />
              <mxPoint x="640" y="788" />
            </Array>
          </mxGeometry>
        </mxCell>
        <mxCell id="ddFM-oOP3RnT6Tgupi9R-1" value="" style="endArrow=classic;html=1;rounded=0;fontSize=18;entryX=0;entryY=0.75;entryDx=0;entryDy=0;" edge="1" parent="1" target="KnuuBMWMvG8lBeq6jmI4-8">
          <mxGeometry width="50" height="50" relative="1" as="geometry">
            <mxPoint x="330" y="350" as="sourcePoint" />
            <mxPoint x="340" y="332.5" as="targetPoint" />
            <Array as="points">
              <mxPoint x="210" y="350" />
              <mxPoint x="210" y="720" />
            </Array>
          </mxGeometry>
        </mxCell>
        <mxCell id="ddFM-oOP3RnT6Tgupi9R-2" value="&lt;font style=&quot;font-size: 18px&quot;&gt;3.通过mqtt下发任务&lt;/font&gt;" style="text;html=1;align=center;verticalAlign=middle;resizable=0;points=[];autosize=1;strokeColor=none;fillColor=none;" vertex="1" parent="1">
          <mxGeometry x="244" y="610" width="170" height="20" as="geometry" />
        </mxCell>
        <mxCell id="ddFM-oOP3RnT6Tgupi9R-3" value="" style="endArrow=classic;html=1;rounded=0;fontSize=18;exitX=0;exitY=0.5;exitDx=0;exitDy=0;entryX=0;entryY=1;entryDx=0;entryDy=0;" edge="1" parent="1" source="KnuuBMWMvG8lBeq6jmI4-8" target="KnuuBMWMvG8lBeq6jmI4-4">
          <mxGeometry width="50" height="50" relative="1" as="geometry">
            <mxPoint x="590" y="447.5" as="sourcePoint" />
            <mxPoint x="280" y="380" as="targetPoint" />
            <Array as="points">
              <mxPoint x="240" y="705" />
              <mxPoint x="240" y="360" />
            </Array>
          </mxGeometry>
        </mxCell>
        <mxCell id="ddFM-oOP3RnT6Tgupi9R-4" value="&lt;font style=&quot;font-size: 18px&quot;&gt;2.请求创建云端任务&lt;/font&gt;" style="text;html=1;align=center;verticalAlign=middle;resizable=0;points=[];autosize=1;strokeColor=none;fillColor=none;" vertex="1" parent="1">
          <mxGeometry x="45" y="450" width="170" height="20" as="geometry" />
        </mxCell>
        <mxCell id="ddFM-oOP3RnT6Tgupi9R-6" value="" style="endArrow=classic;html=1;rounded=0;fontSize=18;exitX=1;exitY=0.75;exitDx=0;exitDy=0;entryX=1;entryY=0.25;entryDx=0;entryDy=0;" edge="1" parent="1" target="KnuuBMWMvG8lBeq6jmI4-5">
          <mxGeometry width="50" height="50" relative="1" as="geometry">
            <mxPoint x="580" y="320.63" as="sourcePoint" />
            <mxPoint x="801.4000000000001" y="319.9999999999999" as="targetPoint" />
            <Array as="points">
              <mxPoint x="640" y="321" />
              <mxPoint x="640" y="413" />
            </Array>
          </mxGeometry>
        </mxCell>
        <mxCell id="ddFM-oOP3RnT6Tgupi9R-7" value="4.通知处理命令" style="text;html=1;align=center;verticalAlign=middle;resizable=0;points=[];autosize=1;strokeColor=none;fillColor=none;fontSize=18;" vertex="1" parent="1">
          <mxGeometry x="630" y="350" width="140" height="30" as="geometry" />
        </mxCell>
        <mxCell id="ddFM-oOP3RnT6Tgupi9R-9" value="5.拉取安装包" style="text;html=1;align=center;verticalAlign=middle;resizable=0;points=[];autosize=1;strokeColor=none;fillColor=none;fontSize=18;" vertex="1" parent="1">
          <mxGeometry x="590" y="565" width="120" height="30" as="geometry" />
        </mxCell>
        <mxCell id="ddFM-oOP3RnT6Tgupi9R-11" value="" style="endArrow=classic;html=1;rounded=0;fontSize=18;entryX=0;entryY=0;entryDx=0;entryDy=135;entryPerimeter=0;exitX=1;exitY=0.5;exitDx=0;exitDy=0;" edge="1" parent="1" source="KnuuBMWMvG8lBeq6jmI4-5" target="KnuuBMWMvG8lBeq6jmI4-22">
          <mxGeometry width="50" height="50" relative="1" as="geometry">
            <mxPoint x="610" y="425" as="sourcePoint" />
            <mxPoint x="150" y="405" as="targetPoint" />
          </mxGeometry>
        </mxCell>
        <mxCell id="ddFM-oOP3RnT6Tgupi9R-12" value="6.解压+验证+&lt;br&gt;安装到本地" style="text;html=1;align=center;verticalAlign=middle;resizable=0;points=[];autosize=1;strokeColor=none;fillColor=none;fontSize=18;" vertex="1" parent="1">
          <mxGeometry x="680" y="420" width="120" height="50" as="geometry" />
        </mxCell>
      </root>
    </mxGraphModel>
  </diagram>
</mxfile>
